# xmcd
#
# Track frame offsets: 
#        150
#        12962
#        27157
#        41334
#        53642
#        65142
#        78630
#        93743
#        106863
#        118523
#        132878
#        145844
#        160981
#        172392
#        186441
#        202178
#        213275
#        227180
#        238818
#        249643
#        263281
#        278308
#        293739
#        305158
#        317676
#
# Disc length: 4433 seconds
#
# Revision: 1
# Processed by: cddbd v1.5.1PL0 Copyright (c) Steve Scherf et al.
# Submitted via: ExactAudioCopy v0.95a5
#
DISCID=6f114f19
DTITLE=Various Artist - Let Me Squeeze Your Lemon: The Ultimate Rude Blues Co
DTITLE=llection [CD2]
DYEAR=2003
DGENRE=Blues
TTITLE0=Blind Boy Fuller - Sweet Honey Hole
TTITLE1=Bo Carter - Banana In Your Fruitbasket
TTITLE2=Cliff Carlisle - Mouse's Ear Blues
TTITLE3=Margaret Carter - I Want Plenty Of Grease In My Frying Pan
TTITLE4=Lightnin' Hopkins - Let Me Play With Your Poodle
TTITLE5=Hattie Hart - I Let My Daddy Do That
TTITLE6=Tampa Red - She Want To Sell My Monkey
TTITLE7=Sippie Wallace - I'm A Mighty Tight Woman
TTITLE8=Robert Johnson - Phonograph Blues
TTITLE9=Barbecue Bobb - She Shook Her Gin
TTITLE10=Big Bill Broonzy - How You Want It Done
TTITLE11=Jimmie Gordon - Bed Spring Blues
TTITLE12=Kansas City Kitty and Georgia Tom - Fish House Blues
TTITLE13=Wynonie Harris - I Want My Fanny Brown
TTITLE14=Cleo Gibson - I've Got Ford Movements In My Hips
TTITLE15=Dirty Red - Mother Fuyer
TTITLE16=Victoria Spivey - Good Cabbage
TTITLE17=The Swallows - It Ain't The Meat
TTITLE18=Roosevelt Sykes - My Baby's Playground
TTITLE19=Minnie Wallace - Dirty Butter
TTITLE20=Lonnie Johnson - Wipe It Off
TTITLE21=Lizzie Miles - My Man O'War
TTITLE22=Little Buddy Doyle - She's Got Good Dry Goods
TTITLE23=James 'Stump' Johnson - Don't Give My Lard Away
TTITLE24=Bo Carter - Cigarette Blues
EXTD=
EXTT0=
EXTT1=
EXTT2=
EXTT3=
EXTT4=
EXTT5=
EXTT6=
EXTT7=
EXTT8=
EXTT9=
EXTT10=
EXTT11=
EXTT12=
EXTT13=
EXTT14=
EXTT15=
EXTT16=
EXTT17=
EXTT18=
EXTT19=
EXTT20=
EXTT21=
EXTT22=
EXTT23=
EXTT24=
PLAYORDER=
